<?xml version="1.0" encoding="UTF-8" standalone="no"?>
<svg
   xmlns:dc="http://purl.org/dc/elements/1.1/"
   xmlns:cc="http://creativecommons.org/ns#"
   xmlns:rdf="http://www.w3.org/1999/02/22-rdf-syntax-ns#"
   xmlns:svg="http://www.w3.org/2000/svg"
   xmlns="http://www.w3.org/2000/svg"
   width="150"
   height="147"
   viewBox="0 0 39.6875 38.893751"
   version="1.1"
   id="svg880">
  <defs
     id="defs874" />
  <metadata
     id="metadata877">
    <rdf:RDF>
      <cc:Work
         rdf:about="">
        <dc:format>image/svg+xml</dc:format>
        <dc:type
           rdf:resource="http://purl.org/dc/dcmitype/StillImage" />
        <dc:title></dc:title>
      </cc:Work>
    </rdf:RDF>
  </metadata>
  <g
     id="layer1"
     transform="translate(0,-258.10625)">
    <g
       id="g1498"
       transform="matrix(0.78540139,0,0,0.78540139,-29.086257,68.238329)">
      <path
         transform="matrix(0.33687658,0,0,0.33687658,37.03362,241.74635)"
         id="circle918"
         d="M 78.220703 0.46875 A 74.881681 74.881681 0 0 0 7.265625 43.044922 A 74.881681 74.881681 0 0 0 2.1113281 92.875 A 75.246958 75.246958 0 0 1 7.8554688 45.484375 A 75.246958 75.246958 0 0 1 33.609375 15.646484 A 73.301714 73.301714 0 0 0 4.7460938 60.871094 A 73.301714 73.301714 0 0 0 62.699219 146.82227 A 73.301714 73.301714 0 0 0 63.822266 147 A 71.359531 71.359531 0 0 1 7.0019531 79.5 A 70.330397 70.330397 0 0 0 44.738281 137.48438 A 70.330397 70.330397 0 0 0 139.54492 107.41016 A 70.330397 70.330397 0 0 0 140.02344 106.4043 A 68.429577 68.429577 0 0 1 48.175781 134.98438 A 68.429577 68.429577 0 0 1 11.548828 68.361328 A 67.289091 67.289091 0 0 1 78.373047 8.6425781 A 67.289091 67.289091 0 0 1 133.5332 37.53125 A 66.275313 66.275313 0 0 0 86.927734 6.3203125 A 71.359531 71.359531 0 0 1 91.863281 7.1015625 A 71.359531 71.359531 0 0 1 148.45703 89.652344 A 73.301714 73.301714 0 0 0 148.65039 88.869141 A 73.301714 73.301714 0 0 0 131.00391 25.746094 A 74.881681 74.881681 0 0 0 130.37891 25.083984 A 73.301714 73.301714 0 0 0 126.66406 21.291016 A 74.881681 74.881681 0 0 0 107.08594 7.6835938 A 74.881681 74.881681 0 0 0 78.220703 0.46875 z M 11.355469 150.7793 L 11.355469 162.11719 L 11.355469 150.7793 z "
         style="opacity:1;fill:#ffffff;fill-opacity:0.19090909;stroke:none;stroke-width:0.93604577;stroke-miterlimit:4;stroke-dasharray:none;stroke-dashoffset:0;stroke-opacity:1" />
      <g
         id="flowRoot2319"
         style="font-style:normal;font-weight:normal;font-size:40px;line-height:1.25;font-family:sans-serif;letter-spacing:0px;word-spacing:0px;fill:#ffffff;fill-opacity:1;stroke:none"
         transform="matrix(0.11727147,0,0,0.11727147,82.487559,257.9392)"
         aria-label="Connexions">
        <path
           id="path2339"
           style="font-style:normal;font-variant:normal;font-weight:normal;font-stretch:normal;font-family:'Comfortaa Light';-inkscape-font-specification:'Comfortaa Light, ';fill:#ffffff;fill-opacity:1"
           d="m -197.31742,58.537647 q 5.6,0 9.88,3.56 0.36,0.28 0.36,0.8 0,0.48 -0.32,0.88 -0.32,0.36 -0.88,0.36 -0.44,0 -1,-0.48 -3.04,-2.72 -8.04,-2.72 -3.52,0 -6.6,1.88 -3.04,1.88 -4.84,5.04 -1.8,3.12 -1.8,6.68 0,3.68 1.76,6.84 1.8,3.12 4.84,4.96 3.08,1.84 6.64,1.84 4.72,0 8.28,-2.92 0.28,-0.2 0.6,-0.2 0.48,0 0.84,0.36 0.4,0.36 0.4,0.88 0,0.52 -0.28,0.84 -3.44,3.44 -9.84,3.44 -4.2,0 -7.8,-2.16 -3.6,-2.2 -5.72,-5.88 -2.12,-3.72 -2.12,-8 0,-4.28 2.08,-7.96 2.12,-3.68 5.68,-5.84 3.6,-2.2 7.88,-2.2 z" />
        <path
           id="path2341"
           style="font-style:normal;font-variant:normal;font-weight:normal;font-stretch:normal;font-family:'Comfortaa Light';-inkscape-font-specification:'Comfortaa Light, ';fill:#ffffff;fill-opacity:1"
           d="m -174.19738,68.057647 q 3.12,0 5.68,1.48 2.56,1.44 4,4 1.48,2.56 1.48,5.72 0,3.12 -1.48,5.68 -1.44,2.56 -4,4.04 -2.56,1.44 -5.68,1.44 -3.16,0 -5.72,-1.44 -2.56,-1.48 -4.04,-4.04 -1.44,-2.56 -1.44,-5.68 0,-3.16 1.44,-5.72 1.48,-2.56 4.04,-4 2.56,-1.48 5.72,-1.48 z m 0,2.24 q -2.48,0 -4.48,1.2 -2,1.16 -3.16,3.2 -1.16,2.04 -1.16,4.56 0,2.52 1.16,4.56 1.16,2.04 3.16,3.2 2,1.16 4.48,1.16 2.48,0 4.48,-1.16 2,-1.16 3.12,-3.2 1.16,-2.04 1.16,-4.56 0,-2.52 -1.16,-4.56 -1.12,-2.04 -3.12,-3.2 -2,-1.2 -4.48,-1.2 z" />
        <path
           id="path2343"
           style="font-style:normal;font-variant:normal;font-weight:normal;font-stretch:normal;font-family:'Comfortaa Light';-inkscape-font-specification:'Comfortaa Light, ';fill:#ffffff;fill-opacity:1"
           d="m -149.65366,68.017647 q 2.92,0 5.2,1.2 2.32,1.2 3.6,3.52 1.32,2.28 1.32,5.48 v 10.76 q 0,0.52 -0.36,0.88 -0.32,0.32 -0.84,0.32 -0.52,0 -0.88,-0.32 -0.32,-0.36 -0.32,-0.88 v -10.76 q 0,-3.8 -2.16,-5.8 -2.12,-2 -5.56,-2 -2.12,0 -3.88,0.84 -1.72,0.8 -2.72,2.28 -1,1.44 -1,3.2 v 12.24 q 0,0.52 -0.32,0.88 -0.32,0.32 -0.88,0.32 -0.52,0 -0.88,-0.32 -0.32,-0.36 -0.32,-0.88 v -19.48 q 0,-0.56 0.32,-0.88 0.36,-0.32 0.88,-0.32 0.56,0 0.88,0.32 0.32,0.32 0.32,0.88 v 2.08 q 1.36,-1.68 3.32,-2.6 1.96,-0.96 4.28,-0.96 z" />
        <path
           id="path2345"
           style="font-style:normal;font-variant:normal;font-weight:normal;font-stretch:normal;font-family:'Comfortaa Light';-inkscape-font-specification:'Comfortaa Light, ';fill:#ffffff;fill-opacity:1"
           d="m -126.16829,68.017647 q 2.92,0 5.2,1.2 2.32,1.2 3.6,3.52 1.32,2.28 1.32,5.48 v 10.76 q 0,0.52 -0.36,0.88 -0.32,0.32 -0.84,0.32 -0.52,0 -0.88,-0.32 -0.32,-0.36 -0.32,-0.88 v -10.76 q 0,-3.8 -2.16,-5.8 -2.12,-2 -5.56,-2 -2.12,0 -3.88,0.84 -1.72,0.8 -2.72,2.28 -1,1.44 -1,3.2 v 12.24 q 0,0.52 -0.32,0.88 -0.32,0.32 -0.88,0.32 -0.52,0 -0.88,-0.32 -0.32,-0.36 -0.32,-0.88 v -19.48 q 0,-0.56 0.32,-0.88 0.36,-0.32 0.88,-0.32 0.56,0 0.88,0.32 0.32,0.32 0.32,0.88 v 2.08 q 1.36,-1.68 3.32,-2.6 1.96,-0.96 4.28,-0.96 z" />
        <path
           id="path2347"
           style="font-style:normal;font-variant:normal;font-weight:normal;font-stretch:normal;font-family:'Comfortaa Light';-inkscape-font-specification:'Comfortaa Light, ';fill:#ffffff;fill-opacity:1"
           d="m -102.41202,68.097647 q 2.92012,0 5.200118,1.4 2.32,1.36 3.6,3.8 1.28,2.44 1.28,5.56 0,0.52 -0.32,0.84 -0.32,0.28 -0.84,0.28 h -16.760128 q 0.12,2.36 1.24,4.24 1.12,1.84 3,2.88 1.88001,1.04 4.20001,1.04 1.56008,0 3.120118,-0.52 1.6,-0.56 2.52,-1.44 0.4,-0.32 0.84,-0.32 0.44,0 0.72,0.24 0.44,0.36 0.44,0.84 0,0.4 -0.36,0.76 -1.28,1.16 -3.36,1.92 -2.039998,0.76 -3.920118,0.76 -3.16,0 -5.64001,-1.4 -2.44,-1.44 -3.84,-3.96 -1.4,-2.56 -1.4,-5.76 0,-3.24 1.28,-5.76 1.32,-2.56 3.64,-3.96 2.36001,-1.44 5.36001,-1.44 z m 0,2.24 q -3.12001,0 -5.28001,2.08 -2.12,2.08 -2.52,5.48 h 15.560128 q -0.28,-3.4 -2.4,-5.48 -2.119998,-2.08 -5.360118,-2.08 z" />
        <path
           id="path2349"
           style="font-style:normal;font-variant:normal;font-weight:normal;font-stretch:normal;font-family:'Comfortaa Light';-inkscape-font-specification:'Comfortaa Light, ';fill:#ffffff;fill-opacity:1"
           d="m -73.102636,88.217647 q 0.36,0.48 0.36,0.92 0,0.48 -0.36,0.76 -0.36,0.28 -0.72,0.28 -0.48,0 -0.76,-0.16 -0.24,-0.16 -0.6,-0.6 l -6.72,-8.92 -7.28,9.32 q -0.24,0.36 -0.84,0.36 -0.52,0 -0.88,-0.36 -0.32,-0.36 -0.32,-0.84 0,-0.44 0.28,-0.76 l 7.44,-9.24 -6.56,-8.68 q -0.28,-0.32 -0.28,-0.8 0,-0.48 0.32,-0.84 0.36,-0.36 0.88,-0.36 0.52,0 0.88,0.36 l 6.4,8.52 6.68,-8.16 q 0.6,-0.72 1.24,-0.72 0.52,0 0.8,0.32 0.32,0.32 0.32,0.8 0,0.44 -0.32,0.88 l -7.08,8.44 z" />
        <path
           id="path2351"
           style="font-style:normal;font-variant:normal;font-weight:normal;font-stretch:normal;font-family:'Comfortaa Light';-inkscape-font-specification:'Comfortaa Light, ';fill:#ffffff;fill-opacity:1"
           d="m -69.377954,69.497647 q 0,-0.56 0.32,-0.88 0.36,-0.32 0.88,-0.32 0.56,0 0.88,0.32 0.32,0.32 0.32,0.88 v 19.48 q 0,0.52 -0.32,0.88 -0.32,0.32 -0.88,0.32 -0.52,0 -0.88,-0.32 -0.32,-0.36 -0.32,-0.88 z m 1.2,-9.52 q 0.76,0 1.28,0.48 0.56,0.48 0.56,1.36 0,0.8 -0.56,1.36 -0.52,0.52 -1.32,0.52 -0.8,0 -1.32,-0.52 -0.52,-0.56 -0.52,-1.36 0,-0.88 0.56,-1.36 0.56,-0.48 1.32,-0.48 z" />
        <path
           id="path2353"
           style="font-style:normal;font-variant:normal;font-weight:normal;font-stretch:normal;font-family:'Comfortaa Light';-inkscape-font-specification:'Comfortaa Light, ';fill:#ffffff;fill-opacity:1"
           d="m -52.424298,68.057647 q 3.12,0 5.68,1.48 2.56,1.44 4,4 1.48,2.56 1.48,5.72 0,3.12 -1.48,5.68 -1.44,2.56 -4,4.04 -2.56,1.44 -5.68,1.44 -3.16,0 -5.72,-1.44 -2.56,-1.48 -4.04,-4.04 -1.44,-2.56 -1.44,-5.68 0,-3.16 1.44,-5.72 1.48,-2.56 4.04,-4 2.56,-1.48 5.72,-1.48 z m 0,2.24 q -2.48,0 -4.48,1.2 -2,1.16 -3.16,3.2 -1.16,2.04 -1.16,4.56 0,2.52 1.16,4.56 1.16,2.04 3.16,3.2 2,1.16 4.48,1.16 2.48,0 4.48,-1.16 2,-1.16 3.12,-3.2 1.16,-2.04 1.16,-4.56 0,-2.52 -1.16,-4.56 -1.12,-2.04 -3.12,-3.2 -2,-1.2 -4.48,-1.2 z" />
        <path
           id="path2355"
           style="font-style:normal;font-variant:normal;font-weight:normal;font-stretch:normal;font-family:'Comfortaa Light';-inkscape-font-specification:'Comfortaa Light, ';fill:#ffffff;fill-opacity:1"
           d="m -27.910778,68.017647 q 2.919999,0 5.199999,1.2 2.32,1.2 3.6,3.52 1.32,2.28 1.32,5.48 v 10.76 q 0,0.52 -0.36,0.88 -0.32,0.32 -0.84,0.32 -0.52,0 -0.88,-0.32 -0.32,-0.36 -0.32,-0.88 v -10.76 q 0,-3.8 -2.16,-5.8 -2.12,-2 -5.559999,-2 -2.12,0 -3.88,0.84 -1.72,0.8 -2.72,2.28 -1,1.44 -1,3.2 v 12.24 q 0,0.52 -0.32,0.88 -0.32,0.32 -0.88,0.32 -0.52,0 -0.88,-0.32 -0.32,-0.36 -0.32,-0.88 v -19.48 q 0,-0.56 0.32,-0.88 0.36,-0.32 0.88,-0.32 0.56,0 0.88,0.32 0.32,0.32 0.32,0.88 v 2.08 q 1.36,-1.68 3.32,-2.6 1.96,-0.96 4.28,-0.96 z" />
        <path
           id="path2357"
           style="font-style:normal;font-variant:normal;font-weight:normal;font-stretch:normal;font-family:'Comfortaa Light';-inkscape-font-specification:'Comfortaa Light, ';fill:#ffffff;fill-opacity:1"
           d="m -5.9582609,68.057647 q 5.0400003,0 7.6400007,3.6 0.24,0.28 0.24,0.68 0,0.56 -0.6400002,0.92 -0.40000063,0.16 -0.60000063,0.16 -0.6,0 -1,-0.52 -2.03999947,-2.6 -5.71999987,-2.6 -2.4400002,0 -3.8799981,1.08 -1.439999,1.04 -1.439999,2.6 0,1.6 1.3599999,2.56 1.399997,0.96 4.6399973,1.44 4.2400003,0.6 6.07999977,2.28 1.88000083,1.64 1.88000083,4 0,1.84 -1.2,3.24 -1.16000083,1.4 -3.1200003,2.16 -1.9600002,0.76 -4.2800004,0.76 -2.3200002,0 -4.5199971,-0.8 -2.2,-0.84 -3.64,-2.52 -0.279999,-0.32 -0.279999,-0.72 0,-0.56 0.519999,-0.92 0.24,-0.2 0.68,-0.2 0.56,0 0.92,0.44 2,2.44 6.4399971,2.44 3.1600004,0 4.6400004,-1.12 1.51999947,-1.12 1.51999947,-2.88 0,-3.16 -6.11999987,-4.04 -3.8800003,-0.56 -5.8799971,-2.12 -1.96,-1.56 -1.96,-3.76 0,-2.92 2.12,-4.52 2.1599969,-1.64 5.5999971,-1.64 z" />
      </g>
      <g
         id="flowRoot2333"
         style="font-style:normal;font-weight:normal;font-size:40px;line-height:1.25;font-family:sans-serif;letter-spacing:0px;word-spacing:0px;fill:#ffffff;fill-opacity:1;stroke:none"
         transform="matrix(0.11727147,0,0,0.11727147,70.17707,257.9392)"
         aria-label="Land">
        <path
           id="path2360"
           style="font-style:normal;font-variant:normal;font-weight:bold;font-stretch:normal;font-family:Comfortaa;-inkscape-font-specification:'Comfortaa Bold';fill:#ffffff;fill-opacity:1"
           d="m -192.75742,86.017647 q 0.88,0 1.48,0.6 0.6,0.6 0.6,1.48 0,0.88 -0.6,1.48 -0.6,0.6 -1.48,0.6 h -16.56 q -0.88,0 -1.48,-0.6 -0.56,-0.6 -0.56,-1.48 v -27.08 q 0,-0.88 0.6,-1.48 0.6,-0.6 1.44,-0.6 0.88,0 1.48,0.6 0.6,0.6 0.6,1.48 v 25 z" />
        <path
           id="path2362"
           style="font-style:normal;font-variant:normal;font-weight:bold;font-stretch:normal;font-family:Comfortaa;-inkscape-font-specification:'Comfortaa Bold';fill:#ffffff;fill-opacity:1"
           d="m -178.54772,68.137647 q 3.08,0 5.56,1.48 2.52,1.44 3.96,4 1.48,2.52 1.48,5.64 v 8.92 q 0,0.88 -0.6,1.48 -0.56,0.56 -1.44,0.56 -0.88,0 -1.48,-0.56 -0.56,-0.6 -0.56,-1.48 v -1.48 q -1.4,1.72 -3.4,2.68 -2,0.96 -4.32,0.96 -2.88,0 -5.24,-1.44 -2.32,-1.44 -3.68,-3.96 -1.32,-2.56 -1.32,-5.68 0,-3.12 1.44,-5.64 1.44,-2.56 3.96,-4 2.56,-1.48 5.64,-1.48 z m 0,18.6 q 2,0 3.6,-0.96 1.64,-1 2.56,-2.68 0.92,-1.72 0.92,-3.84 0,-2.12 -0.92,-3.84 -0.92,-1.72 -2.56,-2.68 -1.6,-1 -3.6,-1 -2,0 -3.64,1 -1.6,0.96 -2.56,2.68 -0.92,1.72 -0.92,3.84 0,2.12 0.92,3.84 0.96,1.68 2.56,2.68 1.64,0.96 3.64,0.96 z" />
        <path
           id="path2364"
           style="font-style:normal;font-variant:normal;font-weight:bold;font-stretch:normal;font-family:Comfortaa;-inkscape-font-specification:'Comfortaa Bold';fill:#ffffff;fill-opacity:1"
           d="m -153.30657,68.097647 q 2.76,0 4.96,1.2 2.2,1.2 3.44,3.52 1.24,2.28 1.24,5.52 v 9.84 q 0,0.88 -0.6,1.48 -0.56,0.56 -1.44,0.56 -0.88,0 -1.48,-0.56 -0.56,-0.6 -0.56,-1.48 v -9.84 q 0,-3.24 -1.76,-4.88 -1.72,-1.68 -4.6,-1.68 -1.68,0 -3.08,0.68 -1.36,0.68 -2.16,1.84 -0.76,1.16 -0.76,2.6 v 11.28 q 0,0.88 -0.56,1.48 -0.56,0.56 -1.48,0.56 -0.88,0 -1.48,-0.56 -0.56,-0.6 -0.56,-1.48 v -17.84 q 0,-0.92 0.56,-1.48 0.6,-0.56 1.48,-0.56 0.92,0 1.48,0.56 0.56,0.56 0.56,1.48 v 0.44 q 1.28,-1.28 3.04,-1.96 1.76,-0.72 3.76,-0.72 z" />
        <path
           id="path2366"
           style="font-style:normal;font-variant:normal;font-weight:bold;font-stretch:normal;font-family:Comfortaa;-inkscape-font-specification:'Comfortaa Bold';fill:#ffffff;fill-opacity:1"
           d="m -120.30374,58.937647 q 0.92,0 1.48,0.56 0.56,0.56 0.56,1.48 v 18.24 q 0,3.12 -1.48,5.68 -1.44,2.52 -3.96,4 -2.48,1.44 -5.56,1.44 -3.08,0 -5.64,-1.44 -2.52,-1.48 -3.96,-4 -1.44,-2.56 -1.44,-5.68 0,-3.12 1.32,-5.64 1.36,-2.56 3.68,-4 2.36,-1.44 5.24,-1.44 2.32,0 4.32,0.96 2,0.96 3.4,2.68 v -10.8 q 0,-0.92 0.56,-1.48 0.6,-0.56 1.48,-0.56 z m -8.96,27.8 q 2,0 3.6,-0.96 1.64,-1 2.56,-2.72 0.92,-1.72 0.92,-3.84 0,-2.12 -0.92,-3.8 -0.92,-1.72 -2.56,-2.68 -1.6,-1 -3.6,-1 -2,0 -3.64,1 -1.6,0.96 -2.56,2.68 -0.92,1.68 -0.92,3.8 0,2.12 0.92,3.84 0.96,1.72 2.56,2.72 1.64,0.96 3.64,0.96 z" />
      </g>
    </g>
    <path
       style="fill:none;stroke:#000000;stroke-width:0.00939091;stroke-linecap:butt;stroke-linejoin:miter;stroke-miterlimit:4;stroke-dasharray:none;stroke-opacity:1"
       d="m 3.005,235 v -3"
       id="path845" />
    <path
       id="path849"
       d="m 88.005,235 v -3"
       style="fill:none;stroke:#000000;stroke-width:0.00939091;stroke-linecap:butt;stroke-linejoin:miter;stroke-miterlimit:4;stroke-dasharray:none;stroke-opacity:1" />
    <path
       style="fill:none;stroke:#000000;stroke-width:0.00939091;stroke-linecap:butt;stroke-linejoin:miter;stroke-miterlimit:4;stroke-dasharray:none;stroke-opacity:1"
       d="m 88.004695,301 v -3"
       id="path851" />
    <path
       style="fill:none;stroke:#000000;stroke-width:0.00939091;stroke-linecap:butt;stroke-linejoin:miter;stroke-miterlimit:4;stroke-dasharray:none;stroke-opacity:1"
       d="M -1,238.9953 H -4"
       id="path855" />
    <path
       style="fill:none;stroke:#000000;stroke-width:0.00939091;stroke-linecap:butt;stroke-linejoin:miter;stroke-miterlimit:4;stroke-dasharray:none;stroke-opacity:1"
       d="M 95,293.9953 H 92"
       id="path857" />
    <path
       id="path859"
       d="M 95,238.9953 H 92"
       style="fill:none;stroke:#000000;stroke-width:0.00939091;stroke-linecap:butt;stroke-linejoin:miter;stroke-miterlimit:4;stroke-dasharray:none;stroke-opacity:1" />
  </g>
</svg>
